<?xml version="1.0" encoding="UTF-8"?>
<svg width="370px" height="301px" viewBox="0 0 370 301" version="1.1" xmlns="http://www.w3.org/2000/svg" xmlns:xlink="http://www.w3.org/1999/xlink">
    <!-- Generator: Sketch 49.3 (51167) - http://www.bohemiancoding.com/sketch -->
    <title>diagramicon copy</title>
    <desc>Created with Sketch.</desc>
    <defs></defs>
    <g id="Liza's-work-" stroke="none" stroke-width="1" fill="none" fill-rule="evenodd">
        <g id="Artboard-2" transform="translate(-63.000000, -102.000000)">
            <g id="diagramicon-copy" transform="translate(55.000000, 97.000000)">
                <g id="Group" transform="translate(91.000000, 34.000000)" fill="#F3F3F3">
                    <path d="M110.694284,0.796280548 C102.809304,0.796280548 96.3733902,6.87320012 96.3733861,14.3184041 C96.3733861,21.1018588 101.73484,26.6940184 108.648442,27.6443362 L108.648442,55.6997259 L53.9940804,85.4981977 L28.2612148,71.4705052 C30.8496762,65.3408841 28.4028935,58.1565142 22.1796286,54.7640414 C15.3510144,51.0412076 6.55874085,53.2663696 2.61625901,59.7141044 C-1.32622284,66.1618393 1.03011644,74.4634572 7.8587306,78.186291 C14.0801154,81.57774 21.8868374,79.9909768 26.2153722,74.8133055 L51.9562289,88.840998 L51.9562289,148.430404 L26.2233633,162.450551 C21.8950032,157.27203 14.0885049,155.685549 7.86672207,159.077566 C1.0381075,162.800013 -1.31823137,171.102017 2.62425048,177.549752 C6.56675278,183.997487 15.3590055,186.222263 22.1876201,182.499815 C28.4084541,179.108312 30.8526877,171.928903 28.2692059,165.800897 L54.0020715,151.773204 L108.648442,181.564131 L108.648442,209.61952 C101.735114,210.570106 96.3733902,216.162427 96.3733861,222.945453 C96.3733861,230.390734 102.809304,236.467576 110.694284,236.467576 C118.579272,236.467576 125.015182,230.390734 125.015182,222.945453 C125.015182,216.162427 119.653458,210.570106 112.740127,209.61952 L112.740127,181.564131 L167.386501,151.773204 L193.119366,165.800897 C190.532759,171.929884 192.98655,179.107481 199.208944,182.499815 C206.03752,186.222263 214.829831,183.997487 218.772313,177.549752 C222.714795,171.102017 220.358418,162.800013 213.529842,159.077566 C207.307874,155.685464 199.501466,157.27927 195.1732,162.458096 L169.440334,148.422859 L169.440334,88.840998 L195.1732,74.8133055 C199.501569,79.9917727 207.308029,81.5779564 213.529842,78.186291 C220.358418,74.4634572 222.714816,66.1618393 218.772313,59.7141044 C214.829831,53.2663696 206.03752,51.0412076 199.208944,54.7640414 C192.988077,58.155189 190.543884,65.3348996 193.127357,71.4629598 L167.386501,85.4906524 L112.740127,55.6997259 L112.740127,27.6443362 C119.653732,26.6940184 125.015182,21.1018588 125.015182,14.3184041 C125.015182,6.87320012 118.579272,0.796280548 110.694284,0.796280548 Z M110.694284,4.65974441 C116.367958,4.65974441 120.923497,8.96117053 120.923497,14.3184041 C120.923497,19.675599 116.367958,23.9770637 110.694284,23.9770637 C105.020614,23.9770637 100.465071,19.675599 100.465071,14.3184041 C100.465071,8.96117053 105.020614,4.65974441 110.694284,4.65974441 Z M14.2999383,56.8315972 C16.2631787,56.7025498 18.2911996,57.1099366 20.133786,58.1143908 C25.0473148,60.7929303 26.7106339,66.6648623 23.8738399,71.304496 C21.0370141,75.9437434 14.8181011,77.5224166 9.90457317,74.8434907 C4.99100964,72.1649512 3.31969906,66.2850838 6.15652575,61.6458364 C7.92954212,58.7460633 11.02787,57.0466762 14.2999383,56.8315972 Z M207.088633,56.8315972 C210.360705,57.0466762 213.459031,58.7460633 215.232048,61.6458364 C218.068895,66.2850838 216.397528,72.1649512 211.483999,74.8434907 C206.570434,77.5224166 200.351579,75.9437434 197.514728,71.304496 C194.677906,66.6648623 196.341221,60.7929303 201.254786,58.1143908 C203.097358,57.1099366 205.125394,56.7025498 207.088633,56.8315972 Z M110.694284,59.0500716 L165.348649,88.8334527 L165.348649,148.430404 L110.694284,178.213785 L56.039923,148.422859 L56.039923,88.8334527 L110.694284,59.0500716 Z M15.7384209,161.145121 C19.0104908,161.3602 22.1088163,163.059588 23.8818351,165.959361 C26.7186822,170.598608 25.0553058,176.478475 20.1417775,179.157015 C15.228214,181.835941 9.00136436,180.257268 6.16451722,175.61802 C3.32769053,170.978386 4.99900111,165.106451 9.91256464,162.427915 C11.7551376,161.423461 13.7751792,161.016074 15.7384209,161.145121 Z M205.650152,161.145121 C207.613392,161.016074 209.641411,161.423461 211.483999,162.427915 C216.397528,165.106451 218.060847,170.978386 215.224057,175.61802 C212.38723,180.257268 206.168315,181.835941 201.254786,179.157015 C196.341221,176.478475 194.66991,170.598608 197.506737,165.959361 C199.279754,163.059588 202.378081,161.3602 205.650152,161.145121 Z M110.694284,213.286793 C116.367958,213.286793 120.923497,217.588374 120.923497,222.945453 C120.923497,228.302918 116.367958,232.604112 110.694284,232.604112 C105.020614,232.604112 100.465071,228.302918 100.465071,222.945453 C100.465071,217.588374 105.020614,213.286793 110.694284,213.286793 Z" id="Shape"></path>
                </g>
                <text id="Health" font-family="HelveticaNeue-Medium, Helvetica Neue" font-size="18" font-weight="400" fill="#FEFFFF">
                    <tspan x="175.162" y="18">Health</tspan>
                </text>
                <text id="Term-Life" font-family="HelveticaNeue-Medium, Helvetica Neue" font-size="18" font-weight="400" fill="#FEFFFF">
                    <tspan x="320.66" y="89">Term </tspan>
                    <tspan x="325.826" y="111">Life</tspan>
                </text>
                <text id="Dental" font-family="HelveticaNeue-Medium, Helvetica Neue" font-size="18" font-weight="400" fill="#FEFFFF">
                    <tspan x="324.662" y="216">Dental</tspan>
                </text>
                <text id="Vision" font-family="HelveticaNeue-Medium, Helvetica Neue" font-size="18" font-weight="400" fill="#FEFFFF">
                    <tspan x="176.899" y="305">Vision</tspan>
                </text>
                <text id="Critical-Illness" font-family="HelveticaNeue-Medium, Helvetica Neue" font-size="18" font-weight="400" fill="#FEFFFF">
                    <tspan x="26.822" y="213">Critical</tspan>
                    <tspan x="29.648" y="235">Illness</tspan>
                </text>
                <text id="Disability" font-family="HelveticaNeue-Medium, Helvetica Neue" font-size="18" font-weight="400" fill="#FEFFFF">
                    <tspan x="7.484" y="91">Disability</tspan>
                </text>
            </g>
        </g>
    </g>
</svg>